<mxfile host="app.diagrams.net" modified="2023-10-13T15:49:26.828Z" agent="Mozilla/5.0 (Windows NT 10.0; Win64; x64) AppleWebKit/537.36 (KHTML, like Gecko) Chrome/117.0.0.0 Safari/537.36" etag="1OICq8VbkpCxesTly_8g" version="22.0.4" type="device">
  <diagram name="PÃ¡gina-1" id="dVRDC4ud4Ufa73m5t_Kl">
    <mxGraphModel dx="1290" dy="574" grid="1" gridSize="10" guides="1" tooltips="1" connect="1" arrows="1" fold="1" page="1" pageScale="1" pageWidth="1169" pageHeight="827" math="0" shadow="0">
      <root>
        <mxCell id="0" />
        <mxCell id="1" parent="0" />
        <mxCell id="3-TYIcQOUTe0Zlhidfyi-1" value="Game" style="whiteSpace=wrap;html=1;align=center;" vertex="1" parent="1">
          <mxGeometry x="740" y="335" width="100" height="40" as="geometry" />
        </mxCell>
        <mxCell id="3-TYIcQOUTe0Zlhidfyi-2" value="Player" style="whiteSpace=wrap;html=1;align=center;" vertex="1" parent="1">
          <mxGeometry x="985" y="335" width="100" height="40" as="geometry" />
        </mxCell>
        <mxCell id="3-TYIcQOUTe0Zlhidfyi-4" value="Id" style="ellipse;whiteSpace=wrap;html=1;align=center;fontStyle=4;" vertex="1" parent="1">
          <mxGeometry x="710" y="280" width="50" height="40" as="geometry" />
        </mxCell>
        <mxCell id="3-TYIcQOUTe0Zlhidfyi-5" value="Id" style="ellipse;whiteSpace=wrap;html=1;align=center;fontStyle=4;" vertex="1" parent="1">
          <mxGeometry x="1060" y="275.25" width="50" height="40" as="geometry" />
        </mxCell>
        <mxCell id="3-TYIcQOUTe0Zlhidfyi-6" value="" style="endArrow=none;html=1;rounded=0;" edge="1" parent="1" source="3-TYIcQOUTe0Zlhidfyi-1" target="3-TYIcQOUTe0Zlhidfyi-4">
          <mxGeometry width="50" height="50" relative="1" as="geometry">
            <mxPoint x="930" y="532.75" as="sourcePoint" />
            <mxPoint x="980" y="482.75" as="targetPoint" />
          </mxGeometry>
        </mxCell>
        <mxCell id="3-TYIcQOUTe0Zlhidfyi-7" value="" style="endArrow=none;html=1;rounded=0;" edge="1" parent="1" source="3-TYIcQOUTe0Zlhidfyi-2" target="3-TYIcQOUTe0Zlhidfyi-5">
          <mxGeometry width="50" height="50" relative="1" as="geometry">
            <mxPoint x="685" y="410.75" as="sourcePoint" />
            <mxPoint x="634" y="394.75" as="targetPoint" />
          </mxGeometry>
        </mxCell>
        <mxCell id="3-TYIcQOUTe0Zlhidfyi-18" value="username" style="ellipse;whiteSpace=wrap;html=1;align=center;" vertex="1" parent="1">
          <mxGeometry x="950" y="272.75" width="60" height="45" as="geometry" />
        </mxCell>
        <mxCell id="3-TYIcQOUTe0Zlhidfyi-19" value="" style="endArrow=none;html=1;rounded=0;" edge="1" parent="1" source="3-TYIcQOUTe0Zlhidfyi-2" target="3-TYIcQOUTe0Zlhidfyi-18">
          <mxGeometry width="50" height="50" relative="1" as="geometry">
            <mxPoint x="1057" y="342.75" as="sourcePoint" />
            <mxPoint x="1082" y="319.75" as="targetPoint" />
          </mxGeometry>
        </mxCell>
        <mxCell id="3-TYIcQOUTe0Zlhidfyi-20" value="state" style="ellipse;whiteSpace=wrap;html=1;align=center;" vertex="1" parent="1">
          <mxGeometry x="810" y="277.5" width="60" height="45" as="geometry" />
        </mxCell>
        <mxCell id="3-TYIcQOUTe0Zlhidfyi-21" value="" style="endArrow=none;html=1;rounded=0;" edge="1" parent="1" source="3-TYIcQOUTe0Zlhidfyi-1" target="3-TYIcQOUTe0Zlhidfyi-20">
          <mxGeometry width="50" height="50" relative="1" as="geometry">
            <mxPoint x="798" y="342.75" as="sourcePoint" />
            <mxPoint x="773" y="319.75" as="targetPoint" />
          </mxGeometry>
        </mxCell>
        <mxCell id="3-TYIcQOUTe0Zlhidfyi-27" value="Lobby" style="shape=associativeEntity;whiteSpace=wrap;html=1;align=center;" vertex="1" parent="1">
          <mxGeometry x="860" y="335" width="100" height="40" as="geometry" />
        </mxCell>
        <mxCell id="3-TYIcQOUTe0Zlhidfyi-28" value="" style="endArrow=none;html=1;rounded=0;" edge="1" parent="1" source="3-TYIcQOUTe0Zlhidfyi-1" target="3-TYIcQOUTe0Zlhidfyi-27">
          <mxGeometry relative="1" as="geometry">
            <mxPoint x="773" y="385" as="sourcePoint" />
            <mxPoint x="813" y="485" as="targetPoint" />
          </mxGeometry>
        </mxCell>
        <mxCell id="3-TYIcQOUTe0Zlhidfyi-33" value="" style="endArrow=none;html=1;rounded=0;" edge="1" parent="1" source="3-TYIcQOUTe0Zlhidfyi-27" target="3-TYIcQOUTe0Zlhidfyi-2">
          <mxGeometry relative="1" as="geometry">
            <mxPoint x="773" y="385" as="sourcePoint" />
            <mxPoint x="813" y="485" as="targetPoint" />
          </mxGeometry>
        </mxCell>
        <mxCell id="3-TYIcQOUTe0Zlhidfyi-37" value="played games" style="ellipse;whiteSpace=wrap;html=1;align=center;" vertex="1" parent="1">
          <mxGeometry x="850" y="480" width="60" height="45" as="geometry" />
        </mxCell>
        <mxCell id="3-TYIcQOUTe0Zlhidfyi-38" value="Ranking" style="whiteSpace=wrap;html=1;align=center;" vertex="1" parent="1">
          <mxGeometry x="870" y="420" width="100" height="39" as="geometry" />
        </mxCell>
        <mxCell id="3-TYIcQOUTe0Zlhidfyi-39" value="has" style="shape=rhombus;perimeter=rhombusPerimeter;whiteSpace=wrap;html=1;align=center;" vertex="1" parent="1">
          <mxGeometry x="1010" y="414" width="50" height="50" as="geometry" />
        </mxCell>
        <mxCell id="3-TYIcQOUTe0Zlhidfyi-40" value="" style="endArrow=none;html=1;rounded=0;" edge="1" parent="1" source="3-TYIcQOUTe0Zlhidfyi-38" target="3-TYIcQOUTe0Zlhidfyi-39">
          <mxGeometry relative="1" as="geometry">
            <mxPoint x="620" y="170" as="sourcePoint" />
            <mxPoint x="620" y="265" as="targetPoint" />
          </mxGeometry>
        </mxCell>
        <mxCell id="3-TYIcQOUTe0Zlhidfyi-41" value="N" style="resizable=0;html=1;whiteSpace=wrap;align=right;verticalAlign=bottom;" connectable="0" vertex="1" parent="3-TYIcQOUTe0Zlhidfyi-40">
          <mxGeometry x="1" relative="1" as="geometry">
            <mxPoint y="1" as="offset" />
          </mxGeometry>
        </mxCell>
        <mxCell id="3-TYIcQOUTe0Zlhidfyi-42" value="" style="endArrow=none;html=1;rounded=0;" edge="1" parent="1" source="3-TYIcQOUTe0Zlhidfyi-2" target="3-TYIcQOUTe0Zlhidfyi-39">
          <mxGeometry relative="1" as="geometry">
            <mxPoint x="565" y="290" as="sourcePoint" />
            <mxPoint x="595" y="290" as="targetPoint" />
          </mxGeometry>
        </mxCell>
        <mxCell id="3-TYIcQOUTe0Zlhidfyi-43" value="1" style="resizable=0;html=1;whiteSpace=wrap;align=right;verticalAlign=bottom;" connectable="0" vertex="1" parent="3-TYIcQOUTe0Zlhidfyi-42">
          <mxGeometry x="1" relative="1" as="geometry">
            <mxPoint x="-1" y="1" as="offset" />
          </mxGeometry>
        </mxCell>
        <mxCell id="3-TYIcQOUTe0Zlhidfyi-44" value="" style="endArrow=none;html=1;rounded=0;" edge="1" parent="1" source="3-TYIcQOUTe0Zlhidfyi-37" target="3-TYIcQOUTe0Zlhidfyi-38">
          <mxGeometry width="50" height="50" relative="1" as="geometry">
            <mxPoint x="1026" y="344" as="sourcePoint" />
            <mxPoint x="1007" y="324" as="targetPoint" />
          </mxGeometry>
        </mxCell>
      </root>
    </mxGraphModel>
  </diagram>
</mxfile>
